<svg width="24" height="25" viewBox="0 0 24 25" fill="none" xmlns="http://www.w3.org/2000/svg">
<path d="M7.22908 11.6833L9.55108 7.81327C9.63328 7.6764 9.75207 7.5652 9.89408 7.49221C10.0361 7.41922 10.1956 7.38735 10.3548 7.40018C10.5139 7.41301 10.6663 7.47004 10.7948 7.56483C10.9233 7.65963 11.0227 7.78842 11.0819 7.9367L13.8685 14.9036L15.5511 12.099C15.6273 11.9722 15.7349 11.8673 15.8636 11.7944C15.9924 11.7216 16.1377 11.6833 16.2857 11.6833L22.2428 11.6833C22.0297 9.1132 20.8583 6.71715 18.9609 4.97056C17.0635 3.22397 14.5788 2.25449 11.9999 2.25449C9.42105 2.25449 6.9364 3.22397 5.03901 4.97056C3.14162 6.71715 1.97016 9.1132 1.75708 11.6833L7.22908 11.6833Z" fill="white"/>
<path d="M16.7708 13.3976L14.4488 17.2676C14.3726 17.3943 14.2649 17.4993 14.1362 17.5721C14.0075 17.6449 13.8621 17.6832 13.7142 17.6833H13.6457C13.4864 17.6705 13.3339 17.6136 13.2053 17.5187C13.0767 17.4239 12.9772 17.2951 12.9179 17.1467L10.1314 10.1773L8.44879 12.9818C8.37262 13.1086 8.26494 13.2135 8.13622 13.2864C8.0075 13.3592 7.86213 13.3975 7.71422 13.3976L1.75708 13.3976C1.97016 15.9676 3.14162 18.3637 5.03901 20.1103C6.9364 21.8569 9.42105 22.8263 11.9999 22.8263C14.5788 22.8263 17.0635 21.8569 18.9609 20.1103C20.8583 18.3637 22.0297 15.9676 22.2428 13.3976L16.7708 13.3976Z" fill="white"/>
</svg>
