<svg width="24" height="25" viewBox="0 0 24 25" fill="none" xmlns="http://www.w3.org/2000/svg">
<path d="M11.9999 22.1404C13.8986 22.1404 15.7547 21.5774 17.3334 20.5225C18.9121 19.4677 20.1425 17.9683 20.8691 16.2142C21.5957 14.46 21.7859 12.5298 21.4154 10.6675C21.045 8.80532 20.1307 7.09476 18.7881 5.75218C17.4455 4.40959 15.735 3.49528 13.8728 3.12486C12.0106 2.75445 10.0803 2.94456 8.32614 3.67116C6.57197 4.39776 5.07266 5.62822 4.01779 7.20693C2.96293 8.78564 2.3999 10.6417 2.3999 12.5404C2.40734 15.0842 3.42116 17.5217 5.2199 19.3204C7.01863 21.1192 9.45611 22.133 11.9999 22.1404ZM8.4659 12.8656C8.51642 12.7676 8.59299 12.6853 8.6872 12.628C8.7814 12.5706 8.8896 12.5403 8.9999 12.5404H11.3999V7.7404C11.3999 7.58127 11.4631 7.42866 11.5756 7.31614C11.6882 7.20362 11.8408 7.1404 11.9999 7.1404C12.159 7.1404 12.3116 7.20362 12.4242 7.31614C12.5367 7.42866 12.5999 7.58127 12.5999 7.7404V12.5404L14.9999 12.5404C15.1101 12.5405 15.2181 12.5709 15.3121 12.6284C15.4062 12.6858 15.4826 12.768 15.5329 12.866C15.5833 12.964 15.6058 13.074 15.5978 13.1839C15.5898 13.2938 15.5517 13.3993 15.4877 13.489L12.4877 17.689C12.4295 17.7627 12.3554 17.8222 12.2709 17.8631C12.1864 17.9041 12.0938 17.9253 11.9999 17.9253C11.906 17.9253 11.8134 17.9041 11.7289 17.8631C11.6444 17.8222 11.5703 17.7627 11.5121 17.689L8.5121 13.489C8.44786 13.3994 8.40955 13.2938 8.4014 13.1838C8.39325 13.0738 8.41557 12.9637 8.4659 12.8656Z" fill="white"/>
</svg>
