<svg width="24" height="25" viewBox="0 0 24 25" fill="none" xmlns="http://www.w3.org/2000/svg">
<path d="M12.0001 2.25468C9.96575 2.25468 7.97711 2.85793 6.28564 3.98814C4.59416 5.11835 3.27581 6.72476 2.49731 8.60423C1.71881 10.4837 1.51512 12.5518 1.912 14.547C2.30887 16.5423 3.28849 18.375 4.72698 19.8135C6.16546 21.252 7.9982 22.2316 9.99343 22.6285C11.9887 23.0254 14.0568 22.8217 15.9362 22.0432C17.8157 21.2647 19.4221 19.9463 20.5523 18.2548C21.6825 16.5634 22.2858 14.5747 22.2858 12.5404C22.2828 9.81336 21.1982 7.19886 19.2699 5.27056C17.3416 3.34225 14.7271 2.25763 12.0001 2.25468ZM15.3506 11.5007L12.3506 15.7864C12.3091 15.8398 12.256 15.883 12.1952 15.9128C12.1345 15.9425 12.0677 15.9579 12.0001 15.9579C11.9324 15.9579 11.8657 15.9425 11.8049 15.9128C11.7442 15.883 11.691 15.8398 11.6495 15.7864L8.6495 11.5007C8.60451 11.4365 8.57798 11.3612 8.5728 11.283C8.56763 11.2048 8.58401 11.1266 8.62016 11.0571C8.65631 10.9875 8.71084 10.9292 8.77783 10.8885C8.84481 10.8477 8.92168 10.8262 9.00007 10.8261L15.0001 10.8261C15.0785 10.8262 15.1553 10.8477 15.2223 10.8885C15.2893 10.9292 15.3438 10.9875 15.38 11.0571C15.4161 11.1266 15.4325 11.2048 15.4273 11.283C15.4222 11.3612 15.3956 11.4365 15.3506 11.5007Z" fill="white"/>
</svg>
