<svg width="27" height="28" viewBox="0 0 27 28" fill="none" xmlns="http://www.w3.org/2000/svg">
<path d="M10.6069 21.7547C10.6069 20.5011 11.9569 18.7654 12.7284 17.8011C13.1141 17.319 13.7891 17.319 14.1748 17.8011C15.0426 18.7654 16.2962 20.5976 16.2962 21.7547C16.2962 23.5868 14.8498 24.6476 13.4034 24.6476C11.9569 24.6476 10.6069 23.5868 10.6069 21.7547Z" fill="white"/>
<path d="M21.118 9.31542C20.443 5.36185 17.068 2.46899 13.018 2.46899C8.968 2.46899 5.40014 5.55471 4.918 9.60471C3.18228 10.2797 1.92871 12.0154 1.92871 14.0404C1.92871 16.7404 4.05014 18.8619 6.75014 18.8619L9.643 18.8619C10.0287 18.1869 10.6073 17.4154 11.3787 16.5476C11.9573 15.8726 12.7287 15.4869 13.5966 15.4869C14.4644 15.4869 15.2359 15.8726 15.8144 16.5476C16.5859 17.4154 17.1644 18.2833 17.5501 18.8619H20.443C23.143 18.8619 25.2644 16.7404 25.2644 14.0404C25.0716 11.6297 23.3359 9.70114 21.118 9.31542Z" fill="white"/>
</svg>
