<svg width="20" height="21" viewBox="0 0 20 21" fill="none" xmlns="http://www.w3.org/2000/svg">
<path d="M17.5 4.29041L2.5 4.29041C2.16848 4.29041 1.85054 4.4221 1.61612 4.65652C1.3817 4.89094 1.25 5.20888 1.25 5.54041L1.25 15.5404C1.25 15.8719 1.3817 16.1899 1.61612 16.4243C1.85054 16.6587 2.16848 16.7904 2.5 16.7904L17.5 16.7904C17.8315 16.7904 18.1495 16.6587 18.3839 16.4243C18.6183 16.1899 18.75 15.8719 18.75 15.5404L18.75 5.54041C18.75 5.20888 18.6183 4.89094 18.3839 4.65652C18.1495 4.4221 17.8315 4.29041 17.5 4.29041ZM4.6875 11.4779C4.50208 11.4779 4.32082 11.4229 4.16665 11.3199C4.01248 11.2169 3.89232 11.0705 3.82136 10.8992C3.75041 10.7279 3.73184 10.5394 3.76801 10.3575C3.80419 10.1757 3.89348 10.0086 4.02459 9.87749C4.1557 9.74638 4.32275 9.65709 4.5046 9.62092C4.68646 9.58475 4.87496 9.60331 5.04627 9.67427C5.21757 9.74523 5.36399 9.86539 5.467 10.0196C5.57002 10.1737 5.625 10.355 5.625 10.5404C5.625 10.789 5.52623 11.0275 5.35041 11.2033C5.1746 11.3791 4.93614 11.4779 4.6875 11.4779ZM10 11.4779C9.81458 11.4779 9.63332 11.4229 9.47915 11.3199C9.32498 11.2169 9.20482 11.0705 9.13386 10.8992C9.06291 10.7279 9.04434 10.5394 9.08051 10.3575C9.11669 10.1757 9.20598 10.0086 9.33709 9.87749C9.4682 9.74638 9.63525 9.65709 9.8171 9.62092C9.99896 9.58475 10.1875 9.60331 10.3588 9.67427C10.5301 9.74523 10.6765 9.86539 10.7795 10.0196C10.8825 10.1737 10.9375 10.355 10.9375 10.5404C10.9375 10.789 10.8387 11.0275 10.6629 11.2033C10.4871 11.3791 10.2486 11.4779 10 11.4779ZM15.3125 11.4779C15.1271 11.4779 14.9458 11.4229 14.7917 11.3199C14.6375 11.2169 14.5173 11.0705 14.4464 10.8992C14.3754 10.7279 14.3568 10.5394 14.393 10.3575C14.4292 10.1757 14.5185 10.0086 14.6496 9.87749C14.7807 9.74638 14.9477 9.65709 15.1296 9.62092C15.3115 9.58475 15.5 9.60331 15.6713 9.67427C15.8426 9.74523 15.989 9.86539 16.092 10.0196C16.195 10.1737 16.25 10.355 16.25 10.5404C16.25 10.789 16.1512 11.0275 15.9754 11.2033C15.7996 11.3791 15.5611 11.4779 15.3125 11.4779Z" fill="white"/>
</svg>
