<svg width="18" height="19" viewBox="0 0 18 19" fill="none" xmlns="http://www.w3.org/2000/svg">
<path d="M15.3965 3.28749C14.546 2.43764 13.4165 1.96899 12.2143 1.96899C11.0122 1.96899 9.8827 2.43764 9.03284 3.28685C9.02191 3.29778 9.01098 3.30871 9.00005 3.32028C8.98912 3.30871 8.97884 3.29842 8.96791 3.28749C8.11741 2.43764 6.98791 1.96899 5.78577 1.96899C4.58362 1.96899 3.45412 2.43764 2.60362 3.28749C1.75312 4.13735 1.28577 5.26685 1.28577 6.46899C1.28577 7.67114 1.75377 8.80064 2.60362 9.65049L9.00005 16.0469L15.3965 9.65049C16.2463 8.80064 16.7143 7.67114 16.7143 6.46899C16.7143 5.26749 16.2463 4.13735 15.3965 3.28749Z" fill="white"/>
</svg>
