<svg width="24" height="25" viewBox="0 0 24 25" fill="none" xmlns="http://www.w3.org/2000/svg">
<path d="M12.0001 2.25469C6.32836 2.25469 1.71436 6.86869 1.71436 12.5404C1.71436 18.2121 6.32836 22.8261 12.0001 22.8261C17.6718 22.8261 22.2858 18.2121 22.2858 12.5404C22.2858 6.86869 17.6718 2.25469 12.0001 2.25469ZM20.5278 11.6833L17.5484 11.6833C17.4301 8.93184 16.7504 6.52326 15.7132 4.82698C18.3386 6.09641 20.2261 8.65584 20.5278 11.6833ZM11.1429 4.22612L11.1429 11.6833H8.16436C8.3435 7.85269 9.69864 5.04898 11.1429 4.22612ZM11.1429 13.3975L11.1429 20.8547C9.69864 20.0318 8.3435 17.2281 8.16436 13.3975H11.1429ZM12.8572 20.8547L12.8572 13.3975H15.8358C15.6566 17.2281 14.3015 20.0318 12.8572 20.8547ZM12.8572 11.6833L12.8572 4.22612C14.3015 5.04898 15.6566 7.85269 15.8358 11.6833H12.8572ZM8.28607 4.82698C7.24978 6.52326 6.56921 8.93184 6.45093 11.6833L3.47236 11.6833C3.77407 8.65584 5.6615 6.09641 8.28607 4.82698ZM3.47236 13.3975L6.45178 13.3975C6.57007 16.149 7.24978 18.5576 8.28693 20.2538C5.6615 18.9844 3.77407 16.425 3.47236 13.3975ZM15.7141 20.2538C16.7504 18.5576 17.4309 16.149 17.5492 13.3975L20.5286 13.3975C20.2261 16.425 18.3386 18.9844 15.7141 20.2538Z" fill="white"/>
</svg>
