<svg width="19" height="20" viewBox="0 0 19 20" fill="none" xmlns="http://www.w3.org/2000/svg">
<path d="M12.7042 3.25471C12.0959 3.25325 11.4944 3.38363 10.9412 3.63689C10.3881 3.89016 9.8964 4.26028 9.50001 4.72178C9.10361 4.26028 8.61192 3.89016 8.05877 3.63689C7.50562 3.38363 6.90416 3.25325 6.29579 3.25471C5.46328 3.25284 4.64854 3.49548 3.9527 3.95252C3.25686 4.40956 2.71055 5.06088 2.38158 5.82564C2.05261 6.5904 1.95546 7.43493 2.10218 8.25441C2.24891 9.07389 2.63305 9.83225 3.20694 10.4354L9.01076 16.4672C9.07408 16.5331 9.15005 16.5855 9.23412 16.6213C9.31819 16.6571 9.40863 16.6755 9.50001 16.6755C9.59139 16.6755 9.68182 16.6571 9.76589 16.6213C9.84997 16.5855 9.92594 16.5331 9.98926 16.4672L15.7931 10.4354L15.7978 10.4306C16.3704 9.827 16.7533 9.06864 16.8989 8.24951C17.0446 7.43039 16.9467 6.58652 16.6173 5.82252C16.288 5.05852 15.7416 4.40797 15.046 3.95152C14.3504 3.49507 13.5362 3.25279 12.7042 3.25471Z" fill="white"/>
</svg>
