<svg width="21" height="21" viewBox="0 0 21 21" fill="none" xmlns="http://www.w3.org/2000/svg">
<path d="M19.25 7.38416C19.25 12.8529 11.1414 17.2795 10.7961 17.4623C10.7051 17.5112 10.6033 17.5369 10.5 17.5369C10.3967 17.5369 10.2949 17.5112 10.2039 17.4623C9.85859 17.2795 1.75 12.8529 1.75 7.38416C1.75145 6.09996 2.26223 4.86877 3.1703 3.96071C4.07837 3.05264 5.30955 2.54185 6.59375 2.54041C8.20703 2.54041 9.61953 3.23416 10.5 4.40681C11.3805 3.23416 12.793 2.54041 14.4062 2.54041C15.6904 2.54185 16.9216 3.05264 17.8297 3.96071C18.7378 4.86877 19.2486 6.09996 19.25 7.38416Z" fill="white"/>
</svg>
