<svg width="19" height="19" viewBox="0 0 19 19" fill="none" xmlns="http://www.w3.org/2000/svg">
<path d="M12.5355 2.61183C11.9592 2.61044 11.3894 2.73396 10.8654 2.9739C10.3413 3.21383 9.8755 3.56447 9.49997 4.00169C9.12444 3.56447 8.65862 3.21383 8.13459 2.9739C7.61055 2.73396 7.04075 2.61044 6.4644 2.61183C5.6757 2.61005 4.90385 2.83992 4.24463 3.27291C3.58541 3.70589 3.06786 4.32293 2.7562 5.04744C2.44454 5.77195 2.3525 6.57203 2.4915 7.34838C2.63051 8.12474 2.99443 8.84318 3.53811 9.41454L9.03647 15.1289C9.09646 15.1913 9.16843 15.241 9.24808 15.2749C9.32772 15.3088 9.4134 15.3263 9.49997 15.3263C9.58654 15.3263 9.67221 15.3088 9.75186 15.2749C9.83151 15.241 9.90348 15.1913 9.96347 15.1289L15.4618 9.41454L15.4663 9.41004C16.0088 8.83821 16.3715 8.11976 16.5095 7.34375C16.6475 6.56773 16.5547 5.76828 16.2427 5.04449C15.9307 4.32069 15.4131 3.70439 14.7541 3.27196C14.0951 2.83954 13.3237 2.61001 12.5355 2.61183Z" fill="white"/>
</svg>
