<svg width="20" height="21" viewBox="0 0 20 21" fill="none" xmlns="http://www.w3.org/2000/svg">
<path d="M8.57164 11.969L2.85735 11.969C2.46307 11.969 2.14307 11.649 2.14307 11.2547L2.14307 2.68326C2.14307 2.28898 2.46307 1.96898 2.85735 1.96898L8.57164 1.96898C8.96592 1.96898 9.28592 2.28898 9.28592 2.68326L9.28592 11.2547C9.28592 11.649 8.96592 11.969 8.57164 11.969Z" fill="#BDC1CA"/>
<path d="M8.57164 19.1118H2.85735C2.46307 19.1118 2.14307 18.7918 2.14307 18.3976L2.14307 14.1118C2.14307 13.7176 2.46307 13.3976 2.85735 13.3976L8.57164 13.3976C8.96592 13.3976 9.28592 13.7176 9.28592 14.1118V18.3976C9.28592 18.7918 8.96592 19.1118 8.57164 19.1118Z" fill="#BDC1CA"/>
<path d="M17.1429 7.68326L11.4286 7.68326C11.0344 7.68326 10.7144 7.36326 10.7144 6.96898L10.7144 2.68326C10.7144 2.28898 11.0344 1.96898 11.4286 1.96898L17.1429 1.96898C17.5372 1.96898 17.8572 2.28898 17.8572 2.68326V6.96898C17.8572 7.36326 17.5372 7.68326 17.1429 7.68326Z" fill="#BDC1CA"/>
<path d="M17.1429 19.1118H11.4286C11.0344 19.1118 10.7144 18.7918 10.7144 18.3975L10.7144 9.82612C10.7144 9.43183 11.0344 9.11183 11.4286 9.11183L17.1429 9.11183C17.5372 9.11183 17.8572 9.43183 17.8572 9.82612L17.8572 18.3975C17.8572 18.7918 17.5372 19.1118 17.1429 19.1118Z" fill="#BDC1CA"/>
</svg>
