<svg width="25" height="26" viewBox="0 0 25 26" fill="none" xmlns="http://www.w3.org/2000/svg">
<path d="M12.4998 2.62372C9.62796 2.62372 7.2915 4.96018 7.2915 7.83205V10.9571H6.24984C5.09984 10.9571 4.1665 11.8904 4.1665 13.0404L4.1665 21.3737C4.1665 22.5237 5.09984 23.4571 6.24984 23.4571H8.33317L11.4582 23.4571H13.5415H15.6248H18.7498C19.8998 23.4571 20.8332 22.5237 20.8332 21.3737V13.0404C20.8332 11.8904 19.8998 10.9571 18.7498 10.9571H17.7082V7.83205C17.7082 4.96018 15.3717 2.62372 12.4998 2.62372ZM9.37484 7.83205C9.37484 6.10913 10.7769 4.70705 12.4998 4.70705C14.2228 4.70705 15.6248 6.10913 15.6248 7.83205V10.9571L9.37484 10.9571L9.37484 7.83205ZM13.5415 19.0018L13.5415 21.3737H11.4582V19.0018C10.7009 18.5623 10.2405 17.6706 10.48 16.6852C10.6634 15.9352 11.2925 15.3289 12.0488 15.1716C13.3967 14.8883 14.5832 15.9081 14.5832 17.2071C14.5832 17.9768 14.1623 18.6414 13.5415 19.0018Z" fill="white"/>
</svg>
