<svg width="24" height="25" viewBox="0 0 24 25" fill="none" xmlns="http://www.w3.org/2000/svg">
<path fill-rule="evenodd" clip-rule="evenodd" d="M12.0001 2.51183C6.34293 2.51183 1.71436 7.1404 1.71436 12.7975C1.71436 17.3404 4.62864 21.1975 8.74293 22.569C9.25721 22.6547 9.42864 22.3118 9.42864 22.0547C9.42864 21.7975 9.42864 21.1975 9.42864 20.3404C6.60007 20.9404 6.00007 18.969 6.00007 18.969C5.5715 17.769 4.88578 17.4261 4.88578 17.4261C3.85721 16.8261 4.88578 16.8261 4.88578 16.8261C5.91436 16.9118 6.42864 17.8547 6.42864 17.8547C7.3715 19.3975 8.82864 18.969 9.42864 18.7118C9.51436 18.0261 9.7715 17.5975 10.1144 17.3404C7.80007 17.0833 5.40007 16.2261 5.40007 12.2833C5.40007 11.169 5.82864 10.2261 6.42864 9.5404C6.42864 9.19755 6.00007 8.16898 6.60007 6.79755C6.60007 6.79755 7.45721 6.5404 9.42864 7.82612C10.2858 7.56898 11.1429 7.48326 12.0001 7.48326C12.8572 7.48326 13.7144 7.56898 14.5715 7.82612C16.5429 6.45469 17.4001 6.79755 17.4001 6.79755C18.0001 8.25469 17.5715 9.28326 17.4858 9.5404C18.1715 10.2261 18.5144 11.169 18.5144 12.2833C18.5144 16.2261 16.1144 17.0833 13.8001 17.3404C14.1429 17.6833 14.4858 18.2833 14.4858 19.2261C14.4858 20.5975 14.4858 21.7118 14.4858 22.0547C14.4858 22.3118 14.6572 22.6547 15.1715 22.569C19.2858 21.1975 22.2001 17.3404 22.2001 12.7975C22.2858 7.1404 17.6572 2.51183 12.0001 2.51183Z" fill="white"/>
</svg>
