<svg width="20" height="21" viewBox="0 0 20 21" fill="none" xmlns="http://www.w3.org/2000/svg">
<path d="M17.8572 1.96899L2.14287 1.96899C1.7143 1.96899 1.42859 2.25471 1.42859 2.68328L1.42859 18.3976C1.42859 18.8261 1.7143 19.1119 2.14287 19.1119L17.8572 19.1119C18.2857 19.1119 18.5714 18.8261 18.5714 18.3976L18.5714 2.68328C18.5714 2.25471 18.2857 1.96899 17.8572 1.96899ZM6.50002 16.6119H4.00002L4.00002 8.39757H6.57145L6.57145 16.6119H6.50002ZM5.2143 7.25471C4.42859 7.25471 3.7143 6.61185 3.7143 5.75471C3.7143 4.96899 4.35716 4.25471 5.2143 4.25471C6.00002 4.25471 6.7143 4.89757 6.7143 5.75471C6.7143 6.61185 6.07145 7.25471 5.2143 7.25471ZM16.0714 16.6119H13.5L13.5 12.6119C13.5 11.6833 13.5 10.469 12.2143 10.469C10.8572 10.469 10.7143 11.469 10.7143 12.5404L10.7143 16.6119H8.14287L8.14287 8.39757L10.5714 8.39757V9.54042C10.9286 8.89757 11.7143 8.25471 13 8.25471C15.5714 8.25471 16.0714 9.96899 16.0714 12.1833L16.0714 16.6119Z" fill="#BDC1CA"/>
</svg>
