<svg width="20" height="21" viewBox="0 0 20 21" fill="none" xmlns="http://www.w3.org/2000/svg">
<path d="M17.8573 1.96898L2.143 1.96898C1.71443 1.96898 1.42871 2.25469 1.42871 2.68326L1.42871 18.3975C1.42871 18.8261 1.71443 19.1118 2.143 19.1118L17.8573 19.1118C18.2859 19.1118 18.5716 18.8261 18.5716 18.3975L18.5716 2.68326C18.5716 2.25469 18.2859 1.96898 17.8573 1.96898ZM6.50014 16.6118H4.00014L4.00014 8.39755H6.57157L6.57157 16.6118H6.50014ZM5.21443 7.25469C4.42871 7.25469 3.71443 6.61184 3.71443 5.75469C3.71443 4.96898 4.35728 4.25469 5.21443 4.25469C6.00014 4.25469 6.71443 4.89755 6.71443 5.75469C6.71443 6.61184 6.07157 7.25469 5.21443 7.25469ZM16.0716 16.6118H13.5001L13.5001 12.6118C13.5001 11.6833 13.5001 10.469 12.2144 10.469C10.8573 10.469 10.7144 11.469 10.7144 12.5404L10.7144 16.6118H8.143L8.143 8.39755L10.5716 8.39755V9.54041C10.9287 8.89755 11.7144 8.25469 13.0001 8.25469C15.5716 8.25469 16.0716 9.96898 16.0716 12.1833L16.0716 16.6118Z" fill="white"/>
</svg>
