<svg width="20" height="21" viewBox="0 0 20 21" fill="none" xmlns="http://www.w3.org/2000/svg">
<path d="M18.5716 5.25469C17.9287 5.5404 17.2859 5.75469 16.5716 5.82612C17.2859 5.39755 17.8573 4.68326 18.143 3.89755C17.4287 4.32612 16.7144 4.61183 15.9287 4.75469C15.2859 4.0404 14.3573 3.61183 13.3573 3.61183C11.4287 3.61183 9.85728 5.18326 9.85728 7.11183C9.85728 7.39755 9.85728 7.68326 9.92871 7.89755C6.92871 7.75469 4.35728 6.32612 2.643 4.18326C2.28585 4.75469 2.143 5.32612 2.143 5.96897C2.143 7.18326 2.78585 8.25469 3.71443 8.89755C3.143 8.89755 2.57157 8.75469 2.143 8.46897C2.143 8.46897 2.143 8.46897 2.143 8.5404C2.143 10.2547 3.35728 11.6833 4.92871 11.969C4.643 12.0404 4.35728 12.1118 4.00014 12.1118C3.78585 12.1118 3.57157 12.1118 3.35728 12.0404C3.78585 13.469 5.07157 14.469 6.643 14.469C5.42871 15.3975 3.92871 15.969 2.28585 15.969C2.00014 15.969 1.71443 15.969 1.42871 15.8975C3.00014 16.8975 4.85728 17.469 6.78585 17.469C13.2859 17.469 16.7859 12.1118 16.7859 7.46897C16.7859 7.32612 16.7859 7.18326 16.7859 7.0404C17.5001 6.5404 18.0716 5.89755 18.5716 5.25469Z" fill="white"/>
</svg>
