<svg width="20" height="21" viewBox="0 0 20 21" fill="none" xmlns="http://www.w3.org/2000/svg">
<path d="M10 4.099C12.0979 4.099 12.3464 4.10686 13.175 4.14472C13.6731 4.15052 14.1665 4.2421 14.6336 4.41543C14.975 4.54122 15.2838 4.74212 15.5371 5.00329C15.7983 5.25664 15.9992 5.56543 16.125 5.90686C16.2983 6.3739 16.3899 6.8673 16.3957 7.36543C16.4336 8.194 16.4414 8.44257 16.4414 10.5404C16.4414 12.6383 16.4336 12.8869 16.3957 13.7154C16.3899 14.2136 16.2983 14.707 16.125 15.174C15.9942 15.5129 15.794 15.8207 15.5371 16.0776C15.2803 16.3344 14.9725 16.5347 14.6336 16.6654C14.1665 16.8388 13.6731 16.9303 13.175 16.9361C12.3464 16.974 12.0979 16.9819 10 16.9819C7.90214 16.9819 7.65357 16.974 6.825 16.9361C6.32687 16.9303 5.83346 16.8388 5.36642 16.6654C5.025 16.5396 4.7162 16.3387 4.46285 16.0776C4.20169 15.8242 4.00079 15.5154 3.875 15.174C3.70166 14.707 3.61008 14.2136 3.60428 13.7154C3.56642 12.8869 3.55857 12.6383 3.55857 10.5404C3.55857 8.44257 3.56642 8.194 3.60428 7.36543C3.61008 6.8673 3.70166 6.3739 3.875 5.90686C4.00079 5.56543 4.20169 5.25664 4.46285 5.00329C4.7162 4.74212 5.025 4.54122 5.36642 4.41543C5.83346 4.2421 6.32687 4.15052 6.825 4.14472C7.65357 4.10686 7.90214 4.099 10 4.099ZM10 2.68329C7.86642 2.68329 7.59857 2.69257 6.76071 2.73043C6.10898 2.7439 5.46421 2.8673 4.85357 3.09543C4.3311 3.2977 3.85671 3.60699 3.46086 4.00346C3.06501 4.39992 2.75645 4.87479 2.555 5.39757C2.32687 6.00822 2.20346 6.65299 2.19 7.30472C2.15214 8.139 2.14285 8.40686 2.14285 10.5404C2.14285 12.674 2.15214 12.9419 2.19 13.7797C2.20346 14.4314 2.32687 15.0762 2.555 15.6869C2.75726 16.2093 3.06656 16.6837 3.46302 17.0796C3.85949 17.4754 4.33436 17.784 4.85714 17.9854C5.46778 18.2136 6.11256 18.337 6.76428 18.3504C7.59857 18.3883 7.86642 18.3976 10 18.3976C12.1336 18.3976 12.4014 18.3883 13.2393 18.3504C13.891 18.337 14.5358 18.2136 15.1464 17.9854C15.6689 17.7832 16.1433 17.4739 16.5391 17.0774C16.935 16.6809 17.2435 16.2061 17.445 15.6833C17.6731 15.0726 17.7965 14.4279 17.81 13.7761C17.8479 12.9419 17.8571 12.674 17.8571 10.5404C17.8571 8.40686 17.8479 8.139 17.81 7.30115C17.7965 6.64942 17.6731 6.00465 17.445 5.394C17.2427 4.87154 16.9334 4.39715 16.537 4.0013C16.1405 3.60545 15.6656 3.29689 15.1429 3.09543C14.5322 2.8673 13.8874 2.7439 13.2357 2.73043C12.4014 2.69257 12.1336 2.68329 10 2.68329Z" fill="#BDC1CA"/>
<path d="M10 6.50543C9.20195 6.50543 8.42182 6.74208 7.75827 7.18545C7.09472 7.62882 6.57754 8.259 6.27214 8.9963C5.96674 9.7336 5.88684 10.5449 6.04253 11.3276C6.19822 12.1103 6.58252 12.8293 7.14682 13.3936C7.71113 13.9579 8.4301 14.3422 9.21281 14.4979C9.99552 14.6536 10.8068 14.5737 11.5441 14.2683C12.2814 13.9629 12.9116 13.4457 13.355 12.7822C13.7983 12.1186 14.035 11.3385 14.035 10.5404C14.035 9.47028 13.6099 8.44397 12.8532 7.68726C12.0965 6.93055 11.0701 6.50543 10 6.50543ZM10 13.1597C9.48195 13.1597 8.97554 13.0061 8.5448 12.7183C8.11406 12.4305 7.77834 12.0214 7.58009 11.5428C7.38185 11.0642 7.32998 10.5375 7.43104 10.0294C7.53211 9.52134 7.78157 9.05463 8.14788 8.68832C8.5142 8.322 8.98091 8.07254 9.489 7.97148C9.99709 7.87041 10.5237 7.92228 11.0024 8.12053C11.481 8.31878 11.89 8.6545 12.1779 9.08523C12.4657 9.51597 12.6193 10.0224 12.6193 10.5404C12.6193 11.2351 12.3433 11.9013 11.8521 12.3925C11.3609 12.8838 10.6947 13.1597 10 13.1597Z" fill="#BDC1CA"/>
<path d="M14.1943 7.28897C14.715 7.28897 15.1371 6.86684 15.1371 6.34612C15.1371 5.82539 14.715 5.40326 14.1943 5.40326C13.6736 5.40326 13.2514 5.82539 13.2514 6.34612C13.2514 6.86684 13.6736 7.28897 14.1943 7.28897Z" fill="#BDC1CA"/>
</svg>
