<svg width="24" height="25" viewBox="0 0 24 25" fill="none" xmlns="http://www.w3.org/2000/svg">
<path d="M21.0548 12.0047L20.3588 11.0558C21.0163 10.3033 21.4285 9.33041 21.4285 8.2547C21.4285 5.89156 19.506 3.96899 17.1428 3.96899L15.2143 3.96899C15.2143 3.96899 14.4205 2.94384 14.3348 2.85727C14.0597 2.58213 13.5574 2.2547 12.7303 2.2547C11.1008 2.2547 8.81311 3.53013 6.75854 5.5847C5.46854 6.87384 4.45196 8.30013 3.89482 9.59956C3.00082 11.6858 3.59654 12.7256 4.03111 13.1601C4.05596 13.185 13.1785 19.881 13.1785 19.881C13.4914 20.1647 13.8822 20.2898 14.322 20.2898C15.6685 20.2898 17.472 19.1147 18.8803 17.7056C20.7497 15.837 22.2068 13.275 21.0548 12.0047ZM17.1428 5.68327C18.5605 5.68327 19.7143 6.83699 19.7143 8.2547C19.7143 8.75956 19.5625 9.22756 19.3105 9.62527L16.4194 5.68327H17.1428ZM5.47111 10.275C5.93739 9.18641 6.84768 7.9187 7.97054 6.79584C9.91282 4.85356 11.7994 3.96899 12.7303 3.96899C12.8391 3.96899 13.0345 3.98184 13.1228 4.06927C13.2608 4.20727 13.314 4.76613 12.8948 5.74241C12.4285 6.83099 11.5183 8.0987 10.3954 9.2207C8.45139 11.1638 6.56568 12.0484 5.63568 12.0484C5.52682 12.0484 5.33054 12.0347 5.24311 11.9481C5.10511 11.8101 5.05282 11.2513 5.47111 10.275Z" fill="white"/>
<path d="M5.14296 15.3176L4.43753 16.3384C3.8761 17.151 2.57153 19.1593 2.57153 20.2547C2.57153 21.6724 3.72525 22.8261 5.14296 22.8261C6.56068 22.8261 7.71439 21.6724 7.71439 20.2547C7.71439 19.1593 6.40982 17.151 5.84839 16.3393L5.14296 15.3176Z" fill="white"/>
</svg>
