<svg width="25" height="26" viewBox="0 0 25 26" fill="none" xmlns="http://www.w3.org/2000/svg">
<path d="M11.7858 17.1476C11.9536 17.3726 12.2188 17.5047 12.5001 17.5047C12.7813 17.5047 13.0456 17.3726 13.2144 17.1476L21.2501 6.43327C21.4536 6.16274 21.4858 5.80113 21.3349 5.49845C21.1831 5.19577 20.8742 5.0047 20.5358 5.0047L4.46436 5.0047C4.12597 5.0047 3.81704 5.19577 3.66525 5.49845C3.51525 5.80113 3.54739 6.16274 3.75007 6.43327L11.7858 17.1476Z" fill="white"/>
<path d="M20.5356 19.2904L4.46415 19.2904C3.9704 19.2904 3.57129 19.6895 3.57129 20.1833C3.57129 20.677 3.9704 21.0761 4.46415 21.0761L20.5356 21.0761C21.0293 21.0761 21.4284 20.677 21.4284 20.1833C21.4284 19.6895 21.0293 19.2904 20.5356 19.2904Z" fill="white"/>
</svg>
