<svg width="20" height="21" viewBox="0 0 20 21" fill="none" xmlns="http://www.w3.org/2000/svg">
<path d="M17.8572 11.2547H12.8572C12.5714 11.2547 12.2857 11.3976 12.2143 11.6833L10.7143 15.1833L7.07145 6.68327C7.00002 6.39756 6.7143 6.2547 6.42859 6.2547C6.14287 6.2547 5.85716 6.39756 5.78573 6.68327L3.78573 11.2547H2.14287C1.7143 11.2547 1.42859 11.5404 1.42859 11.969C1.42859 12.3976 1.7143 12.6833 2.14287 12.6833H4.28573C4.57145 12.6833 4.85716 12.5404 4.92859 12.2547L6.42859 8.7547L10.0714 17.2547C10.2143 17.5404 10.4286 17.6833 10.7143 17.6833C11 17.6833 11.2857 17.5404 11.3572 17.2547L13.2857 12.6833H17.8572C18.2857 12.6833 18.5714 12.3976 18.5714 11.969C18.5714 11.5404 18.2857 11.2547 17.8572 11.2547Z" fill="white"/>
<path d="M13.4286 9.75471C13.7143 9.82614 14 9.82614 14.2857 9.82614C15.9286 9.82614 17.3571 8.75471 17.7143 7.11185C17.7857 6.89756 17.7143 6.68328 17.5714 6.46899C17.5 6.32614 17.2857 6.25471 17.0714 6.25471H16.4286C15.2143 6.25471 14.2857 5.32613 14.2857 4.11185V3.46899C14.2857 3.25471 14.2143 3.04042 14 2.89756C13.8571 2.75471 13.5714 2.68328 13.3571 2.75471C11.4286 3.25471 10.3571 5.11185 10.7857 7.04042C11.1428 8.39756 12.1428 9.39756 13.4286 9.75471Z" fill="white"/>
</svg>
