<svg width="40" height="21" viewBox="0 0 40 21" fill="none" xmlns="http://www.w3.org/2000/svg">
<path d="M9.36392 2.37403C9.59934 1.80802 10.4012 1.80803 10.6366 2.37403L12.5729 7.02953C12.6722 7.26814 12.8966 7.43118 13.1542 7.45183L18.1802 7.85476C18.7913 7.90375 19.039 8.66632 18.5734 9.06509L14.7442 12.3453C14.5479 12.5134 14.4622 12.7773 14.5222 13.0286L15.6921 17.9331C15.8343 18.5294 15.1856 19.0007 14.6625 18.6812L10.3595 16.0529C10.139 15.9183 9.86159 15.9183 9.64109 16.0529L5.33809 18.6812C4.81494 19.0007 4.16626 18.5294 4.30849 17.9331L5.4784 13.0286C5.53837 12.7773 5.45265 12.5134 5.25639 12.3453L1.4271 9.06509C0.961545 8.66632 1.20932 7.90375 1.82038 7.85476L6.84638 7.45183C7.10398 7.43118 7.32838 7.26814 7.42763 7.02953L9.36392 2.37403Z" fill="url(#paint0_linear_4_1206)"/>
<path d="M29.3639 2.37403C29.5993 1.80802 30.4012 1.80803 30.6366 2.37403L32.5729 7.02953C32.6722 7.26814 32.8966 7.43118 33.1542 7.45183L38.1802 7.85476C38.7913 7.90375 39.039 8.66632 38.5734 9.06509L34.7442 12.3453C34.5479 12.5134 34.4622 12.7773 34.5222 13.0286L35.6921 17.9331C35.8343 18.5294 35.1856 19.0007 34.6625 18.6812L30.3595 16.0529C30.139 15.9183 29.8616 15.9183 29.6411 16.0529L25.3381 18.6812C24.8149 19.0007 24.1663 18.5294 24.3085 17.9331L25.4784 13.0286C25.5384 12.7773 25.4527 12.5134 25.2564 12.3453L21.4271 9.06509C20.9615 8.66632 21.2093 7.90375 21.8204 7.85476L26.8464 7.45183C27.104 7.43118 27.3284 7.26814 27.4276 7.02953L29.3639 2.37403Z" fill="url(#paint1_linear_4_1206)"/>
<defs>
<linearGradient id="paint0_linear_4_1206" x1="1.1853" y1="1.94952" x2="18.8152" y2="1.94952" gradientUnits="userSpaceOnUse">
<stop offset="0.4999" stop-color="#F3C63F"/>
<stop offset="0.5" stop-color="#F3C63F"/>
</linearGradient>
<linearGradient id="paint1_linear_4_1206" x1="21.1853" y1="1.94952" x2="38.8152" y2="1.94952" gradientUnits="userSpaceOnUse">
<stop offset="0.4999" stop-color="#F3C63F"/>
<stop offset="0.5" stop-color="#F3C63F"/>
</linearGradient>
</defs>
</svg>
