<svg width="23" height="24" viewBox="0 0 23 24" fill="none" xmlns="http://www.w3.org/2000/svg">
<path d="M9.58341 17.7904C11.3525 17.7904 12.9788 17.1818 14.2764 16.1727L18.4892 20.3855L19.8443 19.0304L15.6315 14.8176C16.6415 13.5191 17.2501 11.8928 17.2501 10.1237C17.2501 5.89649 13.8106 2.45703 9.58341 2.45703C5.35621 2.45703 1.91675 5.89649 1.91675 10.1237C1.91675 14.3509 5.35621 17.7904 9.58341 17.7904ZM9.58341 4.3737C12.7545 4.3737 15.3334 6.95257 15.3334 10.1237C15.3334 13.2948 12.7545 15.8737 9.58341 15.8737C6.41229 15.8737 3.83341 13.2948 3.83341 10.1237C3.83341 6.95257 6.41229 4.3737 9.58341 4.3737Z" fill="white"/>
</svg>
