<svg width="24" height="25" viewBox="0 0 24 25" fill="none" xmlns="http://www.w3.org/2000/svg">
<path d="M19.8749 19.2904C19.875 19.783 19.7672 20.2696 19.5592 20.7162C19.3512 21.1627 19.0479 21.5582 18.6707 21.8751C18.2935 22.1919 17.8516 22.4224 17.3758 22.5502C16.9001 22.678 16.4022 22.7002 15.917 22.6151C15.4318 22.53 14.9711 22.3397 14.5672 22.0576C14.1634 21.7755 13.8262 21.4085 13.5793 20.9822C13.3325 20.5559 13.1819 20.0807 13.1382 19.5901C13.0946 19.0994 13.1588 18.6051 13.3265 18.142L8.35776 14.9498C7.88321 15.4153 7.28176 15.7302 6.62887 15.8552C5.97598 15.9802 5.30073 15.9096 4.68782 15.6522C4.07491 15.3949 3.55164 14.9623 3.18367 14.4087C2.81569 13.8551 2.61938 13.2051 2.61938 12.5404C2.61938 11.8756 2.81569 11.2257 3.18367 10.6721C3.55164 10.1185 4.07491 9.6859 4.68782 9.42856C5.30073 9.17121 5.97598 9.1006 6.62887 9.22557C7.28176 9.35053 7.88321 9.66552 8.35776 10.131L13.3265 6.94351C13.042 6.16168 13.0555 5.30243 13.3645 4.52993C13.6735 3.75744 14.2562 3.12588 15.0015 2.75592C15.7467 2.38596 16.6021 2.30355 17.4042 2.52444C18.2064 2.74532 18.899 3.25401 19.3498 3.95331C19.8005 4.65261 19.9778 5.49348 19.8478 6.31525C19.7178 7.13702 19.2895 7.88207 18.6449 8.40803C18.0002 8.934 17.1844 9.204 16.3532 9.16644C15.5221 9.12889 14.7339 8.78641 14.1393 8.20445L9.17057 11.3966C9.43911 12.1387 9.43911 12.9514 9.17057 13.6935L14.1393 16.8857C14.6137 16.4214 15.2145 16.1073 15.8665 15.9827C16.5185 15.8582 17.1927 15.9286 17.8049 16.1852C18.4171 16.4419 18.9399 16.8734 19.3081 17.4257C19.6763 17.978 19.8735 18.6266 19.8749 19.2904Z" fill="white"/>
</svg>
