<svg width="12" height="13" viewBox="0 0 12 13" fill="none" xmlns="http://www.w3.org/2000/svg">
<path d="M6.31972 2.02497L7.65257 4.72497L10.6329 5.15869C10.6987 5.16818 10.7605 5.19591 10.8114 5.23875C10.8623 5.28159 10.9002 5.33782 10.9207 5.40107C10.9413 5.46432 10.9437 5.53207 10.9278 5.59664C10.9118 5.6612 10.8781 5.72001 10.8304 5.7664L8.67343 7.8664L9.18257 10.8347C9.1938 10.9002 9.18647 10.9676 9.1614 11.0293C9.13633 11.0909 9.09453 11.1442 9.04072 11.1833C8.98691 11.2224 8.92323 11.2457 8.85688 11.2505C8.79054 11.2553 8.72417 11.2415 8.66529 11.2105L6 9.81126L3.33429 11.2118C3.27535 11.2426 3.20898 11.2564 3.14267 11.2515C3.07635 11.2466 3.01271 11.2232 2.95894 11.1841C2.90516 11.145 2.86338 11.0916 2.8383 11.0301C2.81323 10.9685 2.80585 10.9011 2.817 10.8355L3.32615 7.86897L1.16915 5.76897C1.12148 5.72258 1.08776 5.66377 1.07181 5.59921C1.05585 5.53464 1.05829 5.46689 1.07885 5.40364C1.09941 5.34039 1.13728 5.28416 1.18816 5.24132C1.23903 5.19849 1.30089 5.17075 1.36672 5.16126L4.347 4.7254L5.67986 2.0254C5.70934 1.96575 5.75491 1.91554 5.81142 1.88041C5.86792 1.84528 5.93312 1.82664 5.99965 1.8266C6.06619 1.82655 6.13141 1.8451 6.18797 1.88016C6.24452 1.91521 6.29015 1.96537 6.31972 2.02497Z" fill="white"/>
</svg>
