<svg width="24" height="25" viewBox="0 0 24 25" fill="none" xmlns="http://www.w3.org/2000/svg">
<path d="M12.6394 3.50954L15.3051 8.90954L21.2657 9.77697C21.3974 9.79595 21.5211 9.85142 21.6228 9.9371C21.7246 10.0228 21.8003 10.1352 21.8415 10.2617C21.8826 10.3882 21.8875 10.5237 21.8555 10.6529C21.8236 10.782 21.7562 10.8996 21.6609 10.9924L17.3469 15.1924L18.3651 21.129C18.3876 21.2601 18.3729 21.3949 18.3228 21.5181C18.2727 21.6413 18.1891 21.7481 18.0814 21.8263C17.9738 21.9045 17.8465 21.951 17.7138 21.9606C17.5811 21.9702 17.4483 21.9426 17.3306 21.8807L12 19.0821L6.66858 21.8833C6.5507 21.9448 6.41797 21.9723 6.28533 21.9625C6.1527 21.9527 6.02543 21.9061 5.91788 21.8278C5.81032 21.7496 5.72676 21.6429 5.67661 21.5197C5.62645 21.3965 5.6117 21.2618 5.63401 21.1307L6.65229 15.1975L2.33829 10.9975C2.24297 10.9048 2.17553 10.7871 2.14361 10.658C2.11169 10.5289 2.11657 10.3934 2.1577 10.2669C2.19883 10.1404 2.27456 10.0279 2.37631 9.94224C2.47806 9.85657 2.60178 9.80109 2.73343 9.78211L8.69401 8.9104L11.3597 3.5104C11.4187 3.3911 11.5098 3.29067 11.6228 3.22041C11.7358 3.15016 11.8662 3.11288 11.9993 3.11279C12.1324 3.1127 12.2628 3.1498 12.3759 3.21991C12.489 3.29001 12.5803 3.39033 12.6394 3.50954Z" fill="white"/>
</svg>
