<svg width="23" height="24" viewBox="0 0 23 24" fill="none" xmlns="http://www.w3.org/2000/svg">
<path d="M4.92878 5.46892V3.00464L2.4645 3.00464C2.01107 3.00464 1.64307 3.37264 1.64307 3.82607L1.64307 5.46892L4.92878 5.46892Z" fill="white"/>
<path d="M21.357 5.46892V3.82607C21.357 3.37264 20.989 3.00464 20.5356 3.00464L6.57129 3.00464L6.57129 5.46892L21.357 5.46892Z" fill="white"/>
<path d="M1.64307 7.11182L1.64307 20.2547C1.64307 20.7081 2.01107 21.0761 2.4645 21.0761L20.5359 21.0761C20.9894 21.0761 21.3574 20.7081 21.3574 20.2547L21.3574 7.11182L1.64307 7.11182ZM8.79525 14.264L5.75021 17.309L4.58871 16.1475L7.053 13.6832L4.58871 11.219L5.75021 10.0575L8.79525 13.1025C9.11642 13.4237 9.11642 13.9428 8.79525 14.264ZM15.6074 16.969L10.6788 16.969V15.3261L15.6074 15.3261V16.969Z" fill="white"/>
</svg>
